<svg xmlns="http://www.w3.org/2000/svg" width="90.824" height="16" viewBox="0 0 90.824 16"><defs><style>.a{fill:#0a0905;}.b{fill:#ea0437;}</style></defs><g transform="translate(-113 -16)"><path class="a" d="M328.636,338.136l-4.887,7.505,5.053,8.189h3.1l-4.965-8.434,4.731-7.261Z" transform="translate(-203.155 -322.131)"/><path class="a" d="M393.279,338.136l5.192,9.129v6.582H401v-6.438l5.565-9.273h-2.874l-3.875,6.493-3.669-6.493Z" transform="translate(-252.593 -322.131)"/><path class="a" d="M484.876,338.136v15.711h2.563v-10.68l6.855,10.68h2.374V338.136h-2.591v10.446l-6.638-10.446Z" transform="translate(-317.722 -322.131)"/><path class="b" d="M307.96,338.122l-7.461-.005a3.035,3.035,0,0,0-3.03,3.036v12.964Z" transform="translate(-184.469 -322.117)"/><path class="a" d="M357.456,351.334c-.756,0-1.167-.439-1.167-1.357v-3.291h7.244v-2.357h-7.244V341.8c0-.912.411-1.351,1.167-1.351h5.187l1.457-2.313h-6.877c-2.752,0-3.653,1.735-3.653,4v7.8a3.716,3.716,0,0,0,3.875,3.914h6.683v-2.518Z" transform="translate(-224.359 -322.13)"/><path class="a" d="M444.54,351.334c-.74,0-1.156-.439-1.156-1.357v-3.291h7.239v-2.357h-7.239V341.8c0-.912.417-1.351,1.156-1.351h5.2l1.457-2.313h-6.877c-2.752,0-3.653,1.735-3.653,4v7.8a3.718,3.718,0,0,0,3.87,3.914h6.694v-2.518Z" transform="translate(-286.286 -322.13)"/><path class="a" d="M579.14,351.334c-.762,0-1.173-.439-1.173-1.357v-3.291h7.238v-2.357h-7.238V341.8c0-.912.411-1.351,1.173-1.351h5.181l1.456-2.313H578.9c-2.752,0-3.658,1.735-3.658,4v7.8a3.722,3.722,0,0,0,3.875,3.914H585.8v-2.518Z" transform="translate(-381.976 -322.13)"/><path class="a" d="M538.511,351.334c-.756,0-1.173-.439-1.173-1.357V341.8c0-.912.417-1.351,1.173-1.351h5.143l1.451-2.313h-6.688c-2.746,0-3.652,1.735-3.652,4v7.8a3.719,3.719,0,0,0,3.875,3.914h6.449v-2.518Z" transform="translate(-353.194 -322.13)"/></g></svg>